# xmcd
#
# Track frame offsets:
#	150
#	16171
#	33166
#	48368
#	68917
#	84264
#	105043
#	118260
#	134997
#	151223
#	170794
#	191141
#	210102
#	226719
#	243616
#
# Disc length: 3489 seconds
#
# Revision: 0
# Processed by: cddbd v1.5.2PL0 Copyright (c) Steve Scherf et al.
# Submitted via: audiograbber 1.83.01
#
DISCID=be0d9f0f
DTITLE=Celtas Cortos - 20 Soplando Versos - CD2 Éxitos
DYEAR=2006
DGENRE=Celtic
TTITLE0=Hay que volver
TTITLE1=Y decir sí
TTITLE2=Ésta vez
TTITLE3=Por ser de Valladolid
TTITLE4=Tres amigos
TTITLE5=Si no me veo no me creo (Directo)
TTITLE6=Los numeros
TTITLE7=Colgado
TTITLE8=Hoy no me puedo levantar
TTITLE9=Granite Years - The Short Oysterband And Celtas
TTITLE10=Cuentame un cuento  (With Willy De Ville In Ingés)
TTITLE11=Jodete y Baila  (Ixo Rai And Jesus Cifuentes
TTITLE12=Rancho grande (Candeal With Jesus Cifuentes And Nacho
TTITLE13=Buscando el norte
TTITLE14=Haz Turismo (Directo)
EXTD=
EXTT0=
EXTT1=
EXTT2=
EXTT3=
EXTT4=
EXTT5=
EXTT6=
EXTT7=
EXTT8=
EXTT9=
EXTT10=
EXTT11=
EXTT12=
EXTT13=
EXTT14=
PLAYORDER=
